# xmcd CD database file
#
# Track frame offsets:
#	150
#	24174
#	46372
#	71576
#	95134
#	105791
#	126430
#	147647
#	169162
#	191588
#	211328
#
# Disc length: 2995 seconds
#
# Revision: 1
# Processed by: cddbd v1.5.1PL2 Copyright (c) Steve Scherf et al.
# Submitted via: CDex 1.51
#
DISCID=9d0bb10b
DTITLE=Chen Min - My story~我的故事~
DYEAR=2002
DGENRE=New Age
TTITLE0=風のくちづけ(風之吻)
TTITLE1=Story~to be continued~
TTITLE2=古都
TTITLE3=蘇州夜曲
TTITLE4=NHKスペシャル「アジア古都物語」テーマ~東方伝説~
TTITLE5=Sky way(天空)
TTITLE6=Believe
TTITLE7=夢大陸~8th Continent~
TTITLE8=水色の花
TTITLE9=one of my secrets
TTITLE10=遥望(Yao Wang)
EXTD=YEAR: 2002
EXTT0=
EXTT1=
EXTT2=
EXTT3=
EXTT4=
EXTT5=
EXTT6=
EXTT7=
EXTT8=
EXTT9=
EXTT10=
PLAYORDER=
